<?xml version="1.0" encoding="UTF-8" standalone="no"?>
<svg
   width="40"
   height="40"
   version="1.1"
   id="svg2"
   sodipodi:docname="a10.svg"
   inkscape:version="1.4.3 (fcd0343856, 2026-01-01)"
   xmlns:inkscape="http://www.inkscape.org/namespaces/inkscape"
   xmlns:sodipodi="http://sodipodi.sourceforge.net/DTD/sodipodi-0.dtd"
   xmlns="http://www.w3.org/2000/svg"
   xmlns:svg="http://www.w3.org/2000/svg">
  <defs
     id="defs2" />
  <sodipodi:namedview
     id="namedview2"
     pagecolor="#505050"
     bordercolor="#eeeeee"
     borderopacity="1"
     inkscape:showpageshadow="0"
     inkscape:pageopacity="0"
     inkscape:pagecheckerboard="0"
     inkscape:deskcolor="#505050"
     inkscape:zoom="20.075"
     inkscape:cx="19.975093"
     inkscape:cy="20"
     inkscape:window-width="1844"
     inkscape:window-height="1011"
     inkscape:window-x="0"
     inkscape:window-y="0"
     inkscape:window-maximized="1"
     inkscape:current-layer="svg2" />
  <rect
     width="100%"
     height="100%"
     fill="#6073c7"
     id="rect1"
     style="fill:#546bd3;fill-opacity:1" />
  <path
     fill="none"
     stroke="#b545c9"
     d="M40 10v20M0 10v20M10 0h20M10 40h20m10 10L30 40l10-10 10 10zM0 50l-10-10L0 30l10 10zm40-40L30 0l10-10L50 0zM0 10-10 0 0-10 10 0z"
     id="path1"
     style="stroke:#a457ac;stroke-opacity:1" />
  <path
     fill="none"
     stroke="#44a79d"
     d="M20-10v20m0 20v20m-30-30h20m20 0h20M20 30 10 20l10-10 10 10z"
     id="path2"
     style="stroke:#1c998c;stroke-opacity:1" />
</svg>
