<?xml version="1.0" encoding="UTF-8" standalone="no"?>
<svg xmlns="http://www.w3.org/2000/svg" version="1.0" width="1600" height="1600" id="6-cube_t0_A5.svg">
<g style="stroke:#000000;stroke-width:6.0;stroke-opacity:0.50;">
<line x1="800.000" y1="800.000" x2="438.201" y2="800.000"/>
<line x1="800.000" y1="800.000" x2="619.100" y2="486.673"/>
<line x1="800.000" y1="800.000" x2="980.900" y2="486.673"/>
<line x1="800.000" y1="800.000" x2="1161.799" y2="800.000"/>
<line x1="800.000" y1="800.000" x2="980.900" y2="1113.327"/>
<line x1="800.000" y1="800.000" x2="619.100" y2="1113.327"/>
<line x1="438.201" y1="800.000" x2="257.301" y2="486.673"/>
<line x1="438.201" y1="800.000" x2="619.100" y2="486.673"/>
<line x1="438.201" y1="800.000" x2="619.100" y2="1113.327"/>
<line x1="438.201" y1="800.000" x2="257.302" y2="1113.327"/>
<line x1="619.100" y1="486.673" x2="257.301" y2="486.673"/>
<line x1="619.100" y1="486.673" x2="800.000" y2="173.346"/>
<line x1="619.100" y1="486.673" x2="980.900" y2="486.673"/>
<line x1="257.301" y1="486.673" x2="438.201" y2="173.346"/>
<line x1="257.301" y1="486.673" x2="76.402" y2="800.000"/>
<line x1="980.900" y1="486.673" x2="800.000" y2="173.346"/>
<line x1="980.900" y1="486.673" x2="1342.698" y2="486.673"/>
<line x1="980.900" y1="486.673" x2="1161.799" y2="800.000"/>
<line x1="619.100" y1="486.673" x2="438.201" y2="173.346"/>
<line x1="800.000" y1="173.346" x2="438.201" y2="173.346"/>
<line x1="800.000" y1="173.346" x2="1161.799" y2="173.346"/>
<line x1="1161.799" y1="800.000" x2="1342.698" y2="486.673"/>
<line x1="1161.799" y1="800.000" x2="1342.698" y2="1113.327"/>
<line x1="1161.799" y1="800.000" x2="980.900" y2="1113.327"/>
<line x1="980.900" y1="486.673" x2="1161.799" y2="173.346"/>
<line x1="1342.698" y1="486.673" x2="1161.799" y2="173.346"/>
<line x1="1342.698" y1="486.673" x2="1523.598" y2="800.000"/>
<line x1="980.900" y1="1113.327" x2="619.100" y2="1113.327"/>
<line x1="980.900" y1="1113.327" x2="1342.698" y2="1113.327"/>
<line x1="980.900" y1="1113.327" x2="800.000" y2="1426.654"/>
<line x1="619.100" y1="1113.327" x2="438.201" y2="1426.654"/>
<line x1="1161.799" y1="800.000" x2="1523.598" y2="800.000"/>
<line x1="1342.698" y1="1113.327" x2="1523.598" y2="800.000"/>
<line x1="1342.698" y1="1113.327" x2="1161.799" y2="1426.654"/>
<line x1="619.100" y1="1113.327" x2="257.302" y2="1113.327"/>
<line x1="619.100" y1="1113.327" x2="800.000" y2="1426.654"/>
<line x1="257.302" y1="1113.327" x2="76.402" y2="800.000"/>
<line x1="257.302" y1="1113.327" x2="438.201" y2="1426.654"/>
<line x1="438.201" y1="800.000" x2="76.402" y2="800.000"/>
<line x1="980.900" y1="1113.327" x2="1161.799" y2="1426.654"/>
<line x1="800.000" y1="1426.654" x2="438.201" y2="1426.654"/>
<line x1="800.000" y1="1426.654" x2="1161.799" y2="1426.654"/>
</g>
<g style="stroke:#000000;stroke-width:3.0;fill:#ff0000">
<circle cx="438.201" cy="173.346" r="38.3"/>
<circle cx="1161.799" cy="173.346" r="38.3"/>
<circle cx="1523.598" cy="800.000" r="38.3"/>
<circle cx="76.402" cy="800.000" r="38.3"/>
<circle cx="438.201" cy="1426.654" r="38.3"/>
<circle cx="1161.799" cy="1426.654" r="38.3"/>
</g>
<g style="stroke:#000000;stroke-width:3.0;fill:#ff7f00">
<circle cx="257.301" cy="486.673" r="38.3"/>
<circle cx="800.000" cy="173.346" r="38.3"/>
<circle cx="1342.698" cy="486.673" r="38.3"/>
<circle cx="1342.698" cy="1113.327" r="38.3"/>
<circle cx="257.302" cy="1113.327" r="38.3"/>
<circle cx="800.000" cy="1426.654" r="38.3"/>
</g>
<g style="stroke:#000000;stroke-width:3.0;fill:#ffff00">
<circle cx="438.201" cy="800.000" r="38.3"/>
<circle cx="619.100" cy="486.673" r="38.3"/>
<circle cx="980.900" cy="486.673" r="38.3"/>
<circle cx="1161.799" cy="800.000" r="38.3"/>
<circle cx="980.900" cy="1113.327" r="38.3"/>
<circle cx="619.100" cy="1113.327" r="38.3"/>
</g>
<g style="stroke:#000000;stroke-width:3.0;fill:#00ff00">
<circle cx="800.000" cy="800.000" r="38.3"/>
</g>
</svg>