<?xml version="1.0" encoding="UTF-8" standalone="no"?>
<svg xmlns="http://www.w3.org/2000/svg" version="1.0" width="1000.0" height="866.0261" id="C:\tom\6-gon_rhombic_dissection2-size2.svg">
<!-- X Coordinate transform: fx(x)=(x+-5.187988E-4)*1.000001-->
<!-- Y Coordinate transform: fy(y)=(866.02563-y)*1.000001 -->
<!-- Flac geometry view -->
<g style="opacity:1.0;fill:#5a5aff;fill-opacity:1;stroke:#000000;stroke-width:2.0;stroke-opacity:1.00;"> <!-- group <Default> -->
<polygon points=" 500,433.013 738.095,433.013 619.046,639.21 380.952,639.21"/>
<polygon points=" 619.046,639.21 738.095,433.013 857.143,639.21 738.095,845.406"/>
<polygon points=" 619.046,639.21 738.095,845.406 500,845.406 380.952,639.21"/>
<polygon points=" 857.143,639.21 738.095,433.013 857.143,226.817 976.19,433.013"/>
<polygon points=" 23.81,433.013 142.857,226.817 380.952,226.817 261.904,433.013"/>
<polygon points=" 380.952,226.817 142.857,226.817 261.905,20.62 500,20.62"/>
<polygon points=" 500,433.013 380.952,639.21 261.904,433.013 380.952,226.817"/>
<polygon points=" 500,433.013 380.952,226.817 619.047,226.817 738.095,433.013"/>
<polygon points=" 738.095,433.013 619.047,226.817 738.095,20.62 857.143,226.817"/>
<polygon points=" 380.952,639.21 500,845.406 261.905,845.406 142.857,639.21"/>
<polygon points=" 380.952,639.21 142.857,639.21 23.81,433.013 261.904,433.013"/>
<polygon points=" 738.095,20.62 619.047,226.817 380.952,226.817 500,20.62"/>
</g>
</svg>