<?xml version="1.0" encoding="UTF-8" standalone="no"?>
<svg xmlns="http://www.w3.org/2000/svg" version="1.0" width="1000.0" height="866.0254" id="c:\tom\6-gon_rhombic_dissection-size2.svg">
<!-- X Coordinate transform: fx(x)=(x+2.1)*238.09525-->
<!-- Y Coordinate transform: fy(y)=(1.8186532-y)*238.09525 -->
<!-- Dissect 2m-gon into rhombi -->
<g style="opacity:1.0;fill:#5a5aff;fill-opacity:1;stroke:#000000;stroke-width:2.0;stroke-opacity:1.00;"> <!-- group Area0.8660254 -->
<polygon points=" 500,433.013 619.048,226.816 857.143,226.816 738.095,433.013"/>
<polygon points=" 500,433.013 380.952,226.816 500,20.62 619.048,226.816"/>
<polygon points=" 500,433.013 261.905,433.013 142.857,226.816 380.952,226.816"/>
<polygon points=" 500,433.013 380.952,639.209 142.857,639.209 261.905,433.013"/>
<polygon points=" 500,433.013 619.048,639.209 500,845.406 380.952,639.209"/>
<polygon points=" 738.095,433.013 857.143,226.816 976.19,433.013 857.143,639.209"/>
<polygon points=" 619.048,226.816 500,20.62 738.095,20.62 857.143,226.816"/>
<polygon points=" 380.952,226.816 142.857,226.816 261.905,20.62 500,20.62"/>
<polygon points=" 261.905,433.013 142.857,639.209 23.81,433.013 142.857,226.816"/>
<polygon points=" 380.952,639.209 500,845.406 261.905,845.406 142.857,639.209"/>
<polygon points=" 619.048,639.209 857.143,639.209 738.095,845.406 500,845.406"/>
<polygon points=" 500,433.013 738.095,433.013 857.143,639.209 619.048,639.209"/>
</g>
<g style="stroke:#000000;stroke-width:2.0;stroke-opacity:0.50;fill-opacity:0.0">
<!-- Group: <Default>-->
<polyline points=" 261.905,433.013 500,433.013 738.095,433.013"/>
<polyline points=" 380.952,639.209 500,433.013 619.048,226.816"/>
<polyline points=" 619.048,639.209 500,433.013 380.952,226.816"/>
<polyline points=" 738.095,433.013 857.143,226.816"/>
<polyline points=" 619.048,226.816 857.143,226.816"/>
<polyline points=" 619.048,226.816 500,20.62"/>
<polyline points=" 380.952,226.816 500,20.62"/>
<polyline points=" 380.952,226.816 142.857,226.816"/>
<polyline points=" 261.905,433.013 142.857,226.816"/>
<polyline points=" 261.905,433.013 142.857,639.209"/>
<polyline points=" 380.952,639.209 142.857,639.209"/>
<polyline points=" 380.952,639.209 500,845.406"/>
<polyline points=" 619.048,639.209 500,845.406"/>
<polyline points=" 619.048,639.209 857.143,639.209"/>
<polyline points=" 738.095,433.013 857.143,639.209"/>
<polyline points=" 976.19,433.013 857.143,226.816 738.095,20.62"/>
<polyline points=" 738.095,20.62 500,20.62 261.905,20.62"/>
<polyline points=" 23.81,433.013 142.857,226.816 261.905,20.62"/>
<polyline points=" 23.81,433.013 142.857,639.209 261.905,845.406"/>
<polyline points=" 261.905,845.406 500,845.406 738.095,845.406"/>
<polyline points=" 976.19,433.013 857.143,639.209 738.095,845.406"/>
</g>
</svg>