<?xml version="1.0" encoding="UTF-8" standalone="no"?>
<!-- Created with Inkscape (http://www.inkscape.org/) -->

<svg
   width="89.999924mm"
   height="89.999985mm"
   viewBox="0 0 89.999924 89.999985"
   version="1.1"
   id="svg1"
   xmlns="http://www.w3.org/2000/svg"
   xmlns:svg="http://www.w3.org/2000/svg">
  <defs
     id="defs1" />
  <g
     id="layer1"
     transform="translate(-4.9999995,-4.9999998)">
    <g
       id="g30"
       transform="translate(-33.952018,-16.429069)">
      <ellipse
         style="fill:none;stroke:#000000;stroke-width:0.392959;stroke-dasharray:0.392959, 0.785918;stroke-dashoffset:0"
         id="path1"
         cx="83.951981"
         cy="66.429291"
         rx="29.803488"
         ry="29.804079" />
      <ellipse
         style="fill:none;stroke:#000000;stroke-width:0.333809;stroke-dasharray:0.333809, 0.667618;stroke-dashoffset:0"
         id="path2"
         cx="83.951172"
         cy="66.429527"
         rx="14.833595"
         ry="14.833063" />
      <ellipse
         style="fill:none;stroke:#000000;stroke-width:0.538683;stroke-dasharray:none;stroke-dashoffset:0"
         id="path3"
         cx="83.951981"
         cy="66.429062"
         rx="44.730621"
         ry="44.730652" />
      <path
         style="display:none;fill:none;stroke:#ffffff;stroke-width:0.4;stroke-dasharray:0.333809, 0.667618;stroke-dashoffset:0"
         d="m 83.951978,21.69841 c 0,29.820433 0,59.640869 0,89.4613"
         id="path4" />
      <path
         style="display:none;fill:none;stroke:#ffffff;stroke-width:0.4;stroke-dasharray:0.333809, 0.667618;stroke-dashoffset:0"
         d="m 39.221359,66.429061 c 29.820415,0 59.640827,0 89.461241,0"
         id="path5" />
      <path
         style="display:none;fill:none;stroke:#ffffff;stroke-width:0.4;stroke-dasharray:0.333809, 0.667618;stroke-dashoffset:0"
         d="m 39.221359,66.429061 c 29.820415,0 59.640827,0 89.461241,0"
         id="path9"
         transform="rotate(30,83.951979,66.429061)" />
      <path
         style="display:none;fill:none;stroke:#ffffff;stroke-width:0.4;stroke-dasharray:0.333809, 0.667618;stroke-dashoffset:0"
         d="m 39.221359,66.429061 c 29.820415,0 59.640827,0 89.461241,0"
         id="path11"
         transform="rotate(60,83.951871,66.429032)" />
      <path
         style="display:none;fill:none;stroke:#ffffff;stroke-width:0.4;stroke-dasharray:0.333809, 0.667618;stroke-dashoffset:0"
         d="m 39.221359,66.429061 c 29.820415,0 59.640827,0 89.461241,0"
         id="path13"
         transform="rotate(120,83.951854,66.429061)" />
      <path
         style="display:none;fill:none;stroke:#ffffff;stroke-width:0.4;stroke-dasharray:0.333809, 0.667618;stroke-dashoffset:0"
         d="m 39.221359,66.429061 c 29.820415,0 59.640827,0 89.461241,0"
         id="path15"
         transform="rotate(150,83.951842,66.42904)" />
      <path
         style="fill:none;stroke:#000000;stroke-width:0.4;stroke-dasharray:0.333809, 0.667618;stroke-dashoffset:0"
         d="m 96.797729,73.845559 c 8.630701,4.982941 17.261401,9.96588 25.892111,14.948824"
         id="path17" />
      <path
         style="fill:none;stroke:#000000;stroke-width:0.4;stroke-dasharray:0.333809, 0.667618;stroke-dashoffset:0"
         d="m 83.951761,66.429061 c 14.910282,0 29.820559,0 44.730839,0"
         id="path19" />
      <path
         style="fill:none;stroke:#000000;stroke-width:0.4;stroke-dasharray:0.333809, 0.667618;stroke-dashoffset:0"
         d="M 96.797272,59.0127 C 105.42811,54.02968 114.05894,49.046665 122.68978,44.063644"
         id="path20" />
      <path
         style="fill:none;stroke:#000000;stroke-width:0.4;stroke-dasharray:0.333809, 0.667618;stroke-dashoffset:0"
         d="M 83.951978,66.429061 C 91.407019,53.516479 98.862059,40.603897 106.3171,27.691315"
         id="path21" />
      <path
         style="fill:none;stroke:#000000;stroke-width:0.4;stroke-dasharray:0.333809, 0.667618;stroke-dashoffset:0"
         d="m 83.951171,51.596464 c 2.65e-4,-9.966018 5.29e-4,-19.932036 7.94e-4,-29.898054"
         id="path22" />
      <path
         style="fill:none;stroke:#000000;stroke-width:0.4;stroke-dasharray:0.333809, 0.667618;stroke-dashoffset:0"
         d="M 83.951761,66.429061 C 76.496693,53.516456 69.041624,40.60385 61.586556,27.691246"
         id="path23" />
      <path
         style="fill:none;stroke:#000000;stroke-width:0.4;stroke-dasharray:0.333809, 0.667618;stroke-dashoffset:0"
         d="M 71.105421,59.012094 C 62.474988,54.029309 53.844554,49.046523 45.214124,44.06374"
         id="path24" />
      <path
         style="fill:none;stroke:#000000;stroke-width:0.4;stroke-dasharray:0.333809, 0.667618;stroke-dashoffset:0"
         d="m 83.951976,66.429275 c -14.910205,-7.1e-5 -29.820412,-1.43e-4 -44.730617,-2.14e-4"
         id="path25" />
      <path
         style="fill:none;stroke:#000000;stroke-width:0.4;stroke-dasharray:0.333809, 0.667618;stroke-dashoffset:0"
         d="M 71.104963,73.846165 C 62.474665,78.828872 53.844367,83.811579 45.214068,88.794287"
         id="path26" />
      <path
         style="fill:none;stroke:#000000;stroke-width:0.4;stroke-dasharray:0.333809, 0.667618;stroke-dashoffset:0"
         d="M 83.951759,66.429061 C 76.496693,79.341665 69.041625,92.254271 61.586556,105.16688"
         id="path27" />
      <path
         style="fill:none;stroke:#000000;stroke-width:0.4;stroke-dasharray:0.333809, 0.667618;stroke-dashoffset:0"
         d="m 83.951171,81.262589 c 2.65e-4,9.965706 5.29e-4,19.931411 7.94e-4,29.897121"
         id="path28" />
      <path
         style="fill:none;stroke:#000000;stroke-width:0.4;stroke-dasharray:0.333809, 0.667618;stroke-dashoffset:0"
         d="M 83.951976,66.429061 C 91.407057,79.3417 98.862139,92.254341 106.31722,105.16698"
         id="path29" />
    </g>
  </g>
</svg>
